<svg width="59" height="59" viewBox="0 0 59 59" fill="none" xmlns="http://www.w3.org/2000/svg">
<g clip-path="url(#clip0_2_4)">
<path d="M0 0H59V59H0V0Z" fill="#F7DF1E"/>
<path d="M15.5133 49.3046L20.0282 46.5722C20.8993 48.1166 21.6917 49.4233 23.5924 49.4233C25.4142 49.4233 26.5631 48.7107 26.5631 45.9386V27.0868H32.1075V46.017C32.1075 51.7596 28.7413 54.3736 23.83 54.3736C19.3946 54.3736 16.82 52.0765 15.5131 49.3042M35.119 48.7105L39.6335 46.0967C40.822 48.0375 42.3666 49.4632 45.099 49.4632C47.3966 49.4632 48.8614 48.3145 48.8614 46.7303C48.8614 44.8294 47.3565 44.156 44.8218 43.0474L43.436 42.4528C39.4357 40.7503 36.7823 38.6116 36.7823 34.0967C36.7823 29.9381 39.9506 26.7696 44.9013 26.7696C48.4261 26.7696 50.9608 27.9976 52.7824 31.2055L48.4653 33.978C47.5146 32.2751 46.4853 31.6019 44.9011 31.6019C43.2772 31.6019 42.2474 32.6316 42.2474 33.978C42.2474 35.6413 43.2772 36.315 45.6533 37.3447L47.0393 37.9386C51.7524 39.9587 54.4058 42.0179 54.4058 46.6513C54.4058 51.6418 50.4851 54.3743 45.2177 54.3743C40.0693 54.3743 36.7425 51.9188 35.1188 48.7107" fill="black"/>
</g>
<defs>
<clipPath id="clip0_2_4">
<rect width="59" height="59" fill="white"/>
</clipPath>
</defs>
</svg>
